<svg xmlns="http://www.w3.org/2000/svg" viewBox="0 0 512 512" role="img" aria-labelledby="title desc">
  <title id="title">Duty Loops bold concept 03 prismatic context</title>
  <desc id="desc">A prismatic context crystal above layered packets and live data fragments.</desc>
  <defs>
    <linearGradient id="crystalA" x1="206" y1="98" x2="306" y2="276">
      <stop offset="0" stop-color="#00f5ff"/>
      <stop offset=".45" stop-color="#244bff"/>
      <stop offset="1" stop-color="#ff2bc2"/>
    </linearGradient>
    <linearGradient id="layerA" x1="122" y1="292" x2="390" y2="292">
      <stop offset="0" stop-color="#00f5ff"/>
      <stop offset="1" stop-color="#ff2bc2"/>
    </linearGradient>
  </defs>
  <polygon points="256,84 326,214 256,306 186,214" fill="url(#crystalA)"/>
  <path d="M256 84v222M186 214l70 40 70-40" fill="none" stroke="#ffffff" stroke-width="9" stroke-linecap="round" stroke-linejoin="round" opacity=".9"/>
  <polygon points="256,244 396,318 256,392 116,318" fill="#06091d"/>
  <polyline points="116,348 256,422 396,348" fill="none" stroke="url(#layerA)" stroke-width="13" stroke-linecap="round" stroke-linejoin="round"/>
  <polyline points="150,374 256,430 362,374" fill="none" stroke="#7b1dff" stroke-width="10" stroke-linecap="round" stroke-linejoin="round"/>
  <rect x="112" y="170" width="25" height="25" rx="4" fill="#00d7ff"/>
  <rect x="152" y="198" width="19" height="19" rx="4" fill="#00d7ff"/>
  <rect x="342" y="190" width="28" height="28" rx="4" fill="#ff2bc2"/>
  <rect x="386" y="166" width="16" height="16" rx="4" fill="#a500ff"/>
</svg>
